D:\PredSim\limbproperties\Ratio75\Ratio75_IK_walking_2.mot
version=1
nRows=4
nColumns=124
inDegrees=yes
endheader
                time	         pelvis_tilt	         pelvis_list	     pelvis_rotation	           pelvis_tx	           pelvis_ty	           pelvis_tz	       hip_flexion_r	     hip_adduction_r	      hip_rotation_r	        knee_angle_r	       ankle_angle_r	    subtalar_angle_r	         mtp_angle_r	       hip_flexion_l	     hip_adduction_l	      hip_rotation_l	        knee_angle_l	       ankle_angle_l	    subtalar_angle_l	         mtp_angle_l	    lumbar_extension	      lumbar_bending	     lumbar_rotation	          arm_flex_r	           arm_add_r	           arm_rot_r	        elbow_flex_r	          arm_flex_l	           arm_add_l	           arm_rot_l	        elbow_flex_l	glut_med1_r/activation	glut_med2_r/activation	glut_med3_r/activation	glut_min1_r/activation	glut_min2_r/activation	glut_min3_r/activation	semimem_r/activation	semiten_r/activation	bifemlh_r/activation	bifemsh_r/activation	    sar_r/activation	add_long_r/activation	add_brev_r/activation	add_mag1_r/activation	add_mag2_r/activation	add_mag3_r/activation	    tfl_r/activation	   pect_r/activation	   grac_r/activation	glut_max1_r/activation	glut_max2_r/activation	glut_max3_r/activation	iliacus_r/activation	  psoas_r/activation	quad_fem_r/activation	    gem_r/activation	   peri_r/activation	rect_fem_r/activation	vas_med_r/activation	vas_int_r/activation	vas_lat_r/activation	med_gas_r/activation	lat_gas_r/activation	 soleus_r/activation	tib_post_r/activation	flex_dig_r/activation	flex_hal_r/activation	tib_ant_r/activation	per_brev_r/activation	per_long_r/activation	per_tert_r/activation	ext_dig_r/activation	ext_hal_r/activation	glut_med1_l/activation	glut_med2_l/activation	glut_med3_l/activation	glut_min1_l/activation	glut_min2_l/activation	glut_min3_l/activation	semimem_l/activation	semiten_l/activation	bifemlh_l/activation	bifemsh_l/activation	    sar_l/activation	add_long_l/activation	add_brev_l/activation	add_mag1_l/activation	add_mag2_l/activation	add_mag3_l/activation	    tfl_l/activation	   pect_l/activation	   grac_l/activation	glut_max1_l/activation	glut_max2_l/activation	glut_max3_l/activation	iliacus_l/activation	  psoas_l/activation	quad_fem_l/activation	    gem_l/activation	   peri_l/activation	rect_fem_l/activation	vas_med_l/activation	vas_int_l/activation	vas_lat_l/activation	med_gas_l/activation	lat_gas_l/activation	 soleus_l/activation	tib_post_l/activation	flex_dig_l/activation	flex_hal_l/activation	tib_ant_l/activation	per_brev_l/activation	per_long_l/activation	per_tert_l/activation	ext_dig_l/activation	ext_hal_l/activation	 ercspn_r/activation	 ercspn_l/activation	 intobl_r/activation	 intobl_l/activation	 extobl_r/activation	 extobl_l/activation	
          1.12156980	        -11.67285487	          1.40152922	          0.12764938	          2.22644588	          0.88709479	         -0.00067977	         -1.75706303	          0.24910964	          4.86550176	        -27.79819210	         -0.12469092	         13.28985405	         23.00221695	         38.72286777	          3.57330144	         -1.28521570	        -15.23135745	         14.37469277	         -3.45992783	          0.19057531	          3.12665815	         -1.98462676	          3.97127464	         -1.73904943	        -14.04414315	         18.52477637	         38.66541091	         -2.44515025	        -13.84948865	         12.43734767	         46.54183326	          0.10293464	          0.05634178	          0.06966200	          0.14809411	          0.12794225	          0.10291747	          0.05000061	          0.05000003	          0.05000003	          0.05000002	          0.05000158	          0.64733169	          0.32173271	          0.24332964	          0.08577817	          0.08994125	          0.65939266	          0.05797470	          0.05000050	          0.05000823	          0.05545330	          0.10115821	          0.55362082	          0.94817189	          0.52700765	          0.16967900	          0.09906624	          0.61923263	          0.08994908	          0.08994908	          0.08986654	          0.24560327	          0.30558495	          0.16739693	          0.20466047	          0.24492369	          0.27366576	          0.05000000	          0.05059070	          0.13425073	          0.05000002	          0.19617183	          0.05000004	          0.23817618	          0.19454923	          0.18335915	          0.06323832	          0.06323811	          0.05001473	          0.48758953	          0.07111904	          0.63697260	          0.05000007	          0.08717459	          0.06324191	          0.30236708	          0.46975849	          0.41857159	          0.33962496	          0.05000006	          0.05000991	          0.18907628	          0.29910914	          0.28993857	          0.40214801	          0.06323834	          0.06023625	          0.26634191	          0.05414830	          0.13062338	          0.05000002	          0.07284661	          0.07474197	          0.06268176	          0.05000050	          0.05000020	          0.05623093	          0.06117669	          0.05623082	          0.05623100	          0.53982353	          0.27282225	          0.16385555	          0.17948434	          0.66916441	          0.41737260	          0.07508442	          0.13202682	          0.05000000	          0.05000000	          0.05000000	          0.05448934	
          1.12904693	        -11.66270783	          1.36265250	          0.01400695	          2.24312473	          0.88612018	         -0.00080296	         -1.60674520	          0.21620977	          4.71055190	        -29.61848805	         -2.06572943	         13.77830449	         23.00528105	         38.31205615	          3.65160829	         -1.00864298	        -14.80792196	         13.91595681	         -3.38796823	          0.20417873	          3.28516434	         -2.08237145	          4.00024833	         -2.02889892	        -14.09923685	         18.58140702	         38.94719952	         -2.82401017	        -13.90119707	         12.26386857	         46.76041321	          0.09152847	          0.05603907	          0.06654160	          0.13168383	          0.11376499	          0.09151321	          0.05000036	          0.05000002	          0.05000002	          0.05000000	          0.05000012	          0.64626959	          0.35423438	          0.36827529	          0.10116131	          0.07998132	          0.69627574	          0.05155401	          0.05000011	          0.05623135	          0.07111920	          0.08994901	          0.54195828	          0.92992947	          0.55724964	          0.23642535	          0.08808906	          0.56992578	          0.07998183	          0.07998184	          0.07990844	          0.21838801	          0.27172313	          0.14884770	          0.18198207	          0.21778374	          0.24334091	          0.09940709	          0.05000002	          0.11937443	          0.05000001	          0.28759446	          0.05000007	          0.27086643	          0.22604208	          0.18653843	          0.05623095	          0.05623091	          0.05000086	          0.46447098	          0.06323837	          0.59947521	          0.05000016	          0.07751479	          0.05623410	          0.26886194	          0.46503115	          0.42412332	          0.34604996	          0.05000019	          0.05623064	          0.20188444	          0.33310442	          0.31586600	          0.41364541	          0.05623092	          0.05356151	          0.27121368	          0.05000002	          0.16738624	          0.05000002	          0.11160700	          0.11409770	          0.09707070	          0.05000000	          0.05000000	          0.05000000	          0.05439772	          0.05000008	          0.05000010	          0.67826401	          0.33347156	          0.16904275	          0.45243300	          0.75256362	          0.59578477	          0.07115206	          0.11739695	          0.05000139	          0.05000000	          0.05000000	          0.05000047	
          1.13652406	        -11.65024233	          1.33337070	         -0.09207460	          2.25973866	          0.88491631	         -0.00091693	         -1.26804403	          0.19028913	          4.55408390	        -31.75235099	         -3.89901805	         14.20743383	         22.38816173	         37.91848519	          3.75169907	         -0.69491048	        -15.09442126	         13.20345381	         -3.28596188	          0.22321062	          3.43583074	         -2.19486657	          4.01411855	         -2.29719741	        -14.14977117	         18.63634361	         39.20115173	         -3.16835982	        -13.96034942	         12.12172531	         46.92311192	          0.08138622	          0.05000003	          0.05916815	          0.11709196	          0.10115871	          0.08137266	          0.05771095	          0.05000001	          0.05000002	          0.05000001	          0.05000004	          0.60281457	          0.46817694	          0.32750795	          0.08995253	          0.07111874	          0.73993867	          0.13483707	          0.05000031	          0.05000046	          0.06323852	          0.07998179	          0.49416119	          0.88979183	          0.66090905	          0.22135989	          0.07832805	          0.50677238	          0.07111906	          0.07111906	          0.07105380	          0.19418847	          0.24161353	          0.13235391	          0.16181667	          0.19365117	          0.21637634	          0.25896533	          0.05000011	          0.10614659	          0.05000002	          0.40740433	          0.27682209	          0.24085177	          0.20891021	          0.37366025	          0.05000002	          0.05000003	          0.06212797	          0.41300302	          0.05623094	          0.53304745	          0.05000000	          0.06892539	          0.05000281	          0.23906939	          0.51927030	          0.46455901	          0.34984021	          0.05623089	          0.05000009	          0.17951368	          0.35714111	          0.33965994	          0.42892327	          0.05000000	          0.06323831	          0.51364814	          0.05863779	          0.22244963	          0.06323836	          0.20361182	          0.20502542	          0.17510563	          0.06322683	          0.05000033	          0.05000004	          0.05000000	          0.05000004	          0.05000006	          0.66366114	          0.42131016	          0.19455022	          0.50888150	          0.83487455	          0.52976654	          0.09622677	          0.10438821	          0.11820439	          0.05000000	          0.05000000	          0.05000005	
          1.14400119	        -11.63709537	          1.32226080	         -0.19161605	          2.27619877	          0.88353555	         -0.00101500	         -0.74456296	          0.16119209	          4.38662549	        -34.17177208	         -5.53801158	         14.58819014	         21.05191668	         37.55271703	          3.84872944	         -0.31392282	        -16.11579316	         11.97478281	         -3.16464431	          0.22943352	          3.56934229	         -2.32651907	          4.00999679	         -2.52183295	        -14.19010567	         18.69335131	         39.40753977	         -3.46031490	        -14.02616584	         12.01700262	         47.00913329	          0.07236782	          0.05623094	          0.05623095	          0.10411702	          0.08994933	          0.07235577	          0.06987436	          0.10619821	          0.11522494	          0.05000000	          0.08529327	          0.55571203	          0.43495972	          0.29122197	          0.07998496	          0.06323838	          0.75203363	          0.22576893	          0.14429053	          0.05623111	          0.05623116	          0.07111902	          0.43940327	          0.81038953	          0.58767381	          0.19683104	          0.06964853	          0.45061701	          0.06323837	          0.06323837	          0.06318034	          0.17267047	          0.21484037	          0.11768779	          0.14388579	          0.17219272	          0.19239972	          0.36026649	          0.06434786	          0.10610058	          0.30104637	          0.55836126	          0.31951945	          0.36549476	          0.47207024	          0.58201534	          0.28523955	          0.36602098	          0.37411585	          0.36723821	          0.05000001	          0.47398053	          0.05889854	          0.06128780	          0.05623100	          0.21257818	          0.46173003	          0.46873022	          0.39335473	          0.05000001	          0.05623426	          0.15962190	          0.54539104	          0.46445548	          0.53305694	          0.05623093	          0.05623093	          0.45673088	          0.22100553	          0.48110564	          0.05623093	          0.18104964	          0.18230662	          0.15570225	          0.05623093	          0.05623093	          0.05623093	          0.05730108	          0.05623096	          0.05623097	          0.77554597	          0.37462485	          0.17299214	          0.67225450	          0.88980437	          0.68619207	          0.16101603	          0.09282097	          0.10510619	          0.05000000	          0.05000000	          0.05623092	
